<svg xmlns="http://www.w3.org/2000/svg" xmlns:xlink="http://www.w3.org/1999/xlink" width="2000" zoomAndPan="magnify" viewBox="0 0 1500 1499.999933" height="2000" preserveAspectRatio="xMidYMid meet" version="1.0"><defs><g/><clipPath id="c66a74e032"><path d="M 54.941406 27.378906 L 1445.058594 27.378906 L 1445.058594 1470 L 54.941406 1470 Z M 54.941406 27.378906 " clip-rule="nonzero"/></clipPath><clipPath id="264bbb662c"><path d="M 86.441406 27.378906 L 1413.558594 27.378906 C 1421.914062 27.378906 1429.925781 30.695312 1435.832031 36.601562 C 1441.738281 42.511719 1445.058594 50.523438 1445.058594 58.878906 L 1445.058594 1437.796875 C 1445.058594 1446.152344 1441.738281 1454.164062 1435.832031 1460.070312 C 1429.925781 1465.976562 1421.914062 1469.296875 1413.558594 1469.296875 L 86.441406 1469.296875 C 78.085938 1469.296875 70.074219 1465.976562 64.167969 1460.070312 C 58.261719 1454.164062 54.941406 1446.152344 54.941406 1437.796875 L 54.941406 58.878906 C 54.941406 50.523438 58.261719 42.511719 64.167969 36.601562 C 70.074219 30.695312 78.085938 27.378906 86.441406 27.378906 Z M 86.441406 27.378906 " clip-rule="nonzero"/></clipPath><clipPath id="021ada3805"><path d="M 0.941406 0.378906 L 1391.058594 0.378906 L 1391.058594 1442.519531 L 0.941406 1442.519531 Z M 0.941406 0.378906 " clip-rule="nonzero"/></clipPath><clipPath id="7ee1a8cfc7"><path d="M 32.441406 0.378906 L 1359.558594 0.378906 C 1367.914062 0.378906 1375.925781 3.695312 1381.832031 9.601562 C 1387.738281 15.511719 1391.058594 23.523438 1391.058594 31.878906 L 1391.058594 1410.796875 C 1391.058594 1419.152344 1387.738281 1427.164062 1381.832031 1433.070312 C 1375.925781 1438.976562 1367.914062 1442.296875 1359.558594 1442.296875 L 32.441406 1442.296875 C 24.085938 1442.296875 16.074219 1438.976562 10.167969 1433.070312 C 4.261719 1427.164062 0.941406 1419.152344 0.941406 1410.796875 L 0.941406 31.878906 C 0.941406 23.523438 4.261719 15.511719 10.167969 9.601562 C 16.074219 3.695312 24.085938 0.378906 32.441406 0.378906 Z M 32.441406 0.378906 " clip-rule="nonzero"/></clipPath><clipPath id="f2def6558a"><rect x="0" width="1392" y="0" height="1443"/></clipPath><clipPath id="2cf0dfcf21"><path d="M 0.199219 408 L 1268.121094 408 L 1268.121094 1500 L 0.199219 1500 Z M 0.199219 408 " clip-rule="nonzero"/></clipPath><clipPath id="ebbcfd2ea7"><rect x="0" width="1269" y="0" height="1092"/></clipPath><clipPath id="7b92091095"><rect x="0" width="1269" y="0" height="1500"/></clipPath></defs><g clip-path="url(#c66a74e032)"><g clip-path="url(#264bbb662c)"><g transform="matrix(1, 0, 0, 1, 54, 27)"><g clip-path="url(#f2def6558a)"><g clip-path="url(#021ada3805)"><g clip-path="url(#7ee1a8cfc7)"><path fill="#e2a9f1" d="M 0.941406 0.378906 L 1391.058594 0.378906 L 1391.058594 1444.796875 L 0.941406 1444.796875 Z M 0.941406 0.378906 " fill-opacity="1" fill-rule="nonzero"/></g></g></g></g></g></g><g transform="matrix(1, 0, 0, 1, 115, 0.000000000000112861)"><g clip-path="url(#7b92091095)"><g fill="#1b1b1b" fill-opacity="1"><g transform="translate(3.260567, 756.491231)"><g><path d="M 19.21875 0 C 12.101562 0 8.546875 -3.554688 8.546875 -10.671875 L 8.546875 -672.8125 C 8.546875 -679.925781 12.101562 -683.484375 19.21875 -683.484375 L 279.796875 -683.484375 C 284.785156 -683.484375 288.703125 -680.992188 291.546875 -676.015625 L 416.5 -444.265625 L 429.3125 -444.265625 L 364.171875 -576.6875 L 364.171875 -672.8125 C 364.171875 -679.925781 367.375 -683.484375 373.78125 -683.484375 L 653.59375 -683.484375 C 660.707031 -683.484375 664.265625 -679.925781 664.265625 -672.8125 L 664.265625 -10.671875 C 664.265625 -3.554688 660.707031 0 653.59375 0 L 391.9375 0 C 386.957031 0 383.039062 -2.488281 380.1875 -7.46875 L 252.03125 -245.625 L 240.296875 -245.625 L 307.578125 -106.796875 L 307.578125 -10.671875 C 307.578125 -3.554688 304.015625 0 296.890625 0 Z M 19.21875 0 "/></g></g></g><g fill="#1b1b1b" fill-opacity="1"><g transform="translate(676.072972, 756.491231)"><g><path d="M 19.21875 0 C 12.101562 0 8.546875 -3.554688 8.546875 -10.671875 L 8.546875 -672.8125 C 8.546875 -679.925781 12.101562 -683.484375 19.21875 -683.484375 L 571.359375 -683.484375 C 578.472656 -683.484375 582.03125 -679.925781 582.03125 -672.8125 L 582.03125 -433.59375 C 582.03125 -426.46875 578.472656 -422.90625 571.359375 -422.90625 L 328.921875 -422.90625 L 328.921875 -407.953125 L 571.359375 -407.953125 C 578.472656 -407.953125 582.03125 -404.394531 582.03125 -397.28125 L 582.03125 -275.53125 C 582.03125 -269.125 578.472656 -265.921875 571.359375 -265.921875 L 328.921875 -265.921875 L 328.921875 -249.90625 L 571.359375 -249.90625 C 578.472656 -249.90625 582.03125 -246.703125 582.03125 -240.296875 L 582.03125 -10.671875 C 582.03125 -3.554688 578.472656 0 571.359375 0 Z M 19.21875 0 "/></g></g></g><g clip-path="url(#2cf0dfcf21)"><g transform="matrix(1, 0, 0, 1, 0, 408)"><g clip-path="url(#ebbcfd2ea7)"><g fill="#1b1b1b" fill-opacity="1"><g transform="translate(2.545307, 999.193855)"><g><path d="M 624.421875 -630.4375 L 624.421875 -378.265625 L 552.375 -316.21875 L 624.421875 -248.171875 L 624.421875 -10 C 624.421875 -3.332031 621.085938 0 614.421875 0 L 333.234375 0 C 326.554688 0 323.21875 -3.332031 323.21875 -10 L 323.21875 -216.15625 L 316.21875 -226.15625 L 309.21875 -216.15625 L 309.21875 -10 C 309.21875 -3.332031 305.878906 0 299.203125 0 L 18.015625 0 C 11.335938 0 8 -3.332031 8 -10 L 8 -248.171875 L 80.0625 -316.21875 L 8 -378.265625 L 8 -630.4375 C 8 -637.101562 11.335938 -640.4375 18.015625 -640.4375 L 299.203125 -640.4375 C 305.878906 -640.4375 309.21875 -637.101562 309.21875 -630.4375 L 309.21875 -411.28125 L 316.21875 -402.28125 L 323.21875 -411.28125 L 323.21875 -630.4375 C 323.21875 -637.101562 326.554688 -640.4375 333.234375 -640.4375 L 614.421875 -640.4375 C 621.085938 -640.4375 624.421875 -637.101562 624.421875 -630.4375 Z M 624.421875 -630.4375 "/></g></g></g><g fill="#1b1b1b" fill-opacity="1"><g transform="translate(634.97815, 999.193855)"><g><path d="M 8 -140.09375 L 8 -500.34375 C 8 -545.707031 20.175781 -580.394531 44.53125 -604.40625 C 68.882812 -628.425781 103.410156 -640.4375 148.109375 -640.4375 L 484.328125 -640.4375 C 529.691406 -640.4375 564.378906 -628.425781 588.390625 -604.40625 C 612.410156 -580.394531 624.421875 -545.707031 624.421875 -500.34375 L 624.421875 -140.09375 C 624.421875 -95.394531 612.410156 -60.867188 588.390625 -36.515625 C 564.378906 -12.171875 529.691406 0 484.328125 0 L 148.109375 0 C 103.410156 0 68.882812 -12.171875 44.53125 -36.515625 C 20.175781 -60.867188 8 -95.394531 8 -140.09375 Z M 309.21875 -464.3125 L 309.21875 -176.125 L 323.21875 -176.125 L 323.21875 -464.3125 Z M 309.21875 -464.3125 "/></g></g></g></g></g></g></g></g></svg>
