<svg xmlns="http://www.w3.org/2000/svg" xmlns:xlink="http://www.w3.org/1999/xlink" width="1344" zoomAndPan="magnify" viewBox="0 0 1008 287.999989" height="384" preserveAspectRatio="xMidYMid meet" version="1.0"><defs><g/><clipPath id="09df8aada4"><rect x="0" width="972" y="0" height="288"/></clipPath></defs><g transform="matrix(1, 0, 0, 1, 18, 0)"><g clip-path="url(#09df8aada4)"><g fill="#1b1b1b" fill-opacity="1"><g transform="translate(0.40365, 269.90919)"><g><path d="M 7.140625 0 C 4.492188 0 3.171875 -1.320312 3.171875 -3.96875 L 3.171875 -250.046875 C 3.171875 -252.691406 4.492188 -254.015625 7.140625 -254.015625 L 103.984375 -254.015625 C 105.835938 -254.015625 107.289062 -253.085938 108.34375 -251.234375 L 154.78125 -165.109375 L 159.546875 -165.109375 L 135.34375 -214.328125 L 135.34375 -250.046875 C 135.34375 -252.691406 136.53125 -254.015625 138.90625 -254.015625 L 242.890625 -254.015625 C 245.535156 -254.015625 246.859375 -252.691406 246.859375 -250.046875 L 246.859375 -3.96875 C 246.859375 -1.320312 245.535156 0 242.890625 0 L 145.65625 0 C 143.800781 0 142.347656 -0.925781 141.296875 -2.78125 L 93.671875 -91.28125 L 89.296875 -91.28125 L 114.296875 -39.6875 L 114.296875 -3.96875 C 114.296875 -1.320312 112.972656 0 110.328125 0 Z M 7.140625 0 "/></g></g></g><g fill="#1b1b1b" fill-opacity="1"><g transform="translate(250.4415, 269.90919)"><g><path d="M 7.140625 0 C 4.492188 0 3.171875 -1.320312 3.171875 -3.96875 L 3.171875 -250.046875 C 3.171875 -252.691406 4.492188 -254.015625 7.140625 -254.015625 L 212.34375 -254.015625 C 214.988281 -254.015625 216.3125 -252.691406 216.3125 -250.046875 L 216.3125 -161.140625 C 216.3125 -158.492188 214.988281 -157.171875 212.34375 -157.171875 L 122.25 -157.171875 L 122.25 -151.609375 L 212.34375 -151.609375 C 214.988281 -151.609375 216.3125 -150.285156 216.3125 -147.640625 L 216.3125 -102.390625 C 216.3125 -100.015625 214.988281 -98.828125 212.34375 -98.828125 L 122.25 -98.828125 L 122.25 -92.875 L 212.34375 -92.875 C 214.988281 -92.875 216.3125 -91.679688 216.3125 -89.296875 L 216.3125 -3.96875 C 216.3125 -1.320312 214.988281 0 212.34375 0 Z M 7.140625 0 "/></g></g></g><g fill="#1b1b1b" fill-opacity="1"><g transform="translate(469.919126, 269.90919)"><g><path d="M 247.65625 -250.046875 L 247.65625 -150.03125 L 219.078125 -125.421875 L 247.65625 -98.421875 L 247.65625 -3.96875 C 247.65625 -1.320312 246.332031 0 243.6875 0 L 132.171875 0 C 129.523438 0 128.203125 -1.320312 128.203125 -3.96875 L 128.203125 -85.734375 L 125.421875 -89.703125 L 122.640625 -85.734375 L 122.640625 -3.96875 C 122.640625 -1.320312 121.316406 0 118.671875 0 L 7.140625 0 C 4.492188 0 3.171875 -1.320312 3.171875 -3.96875 L 3.171875 -98.421875 L 31.75 -125.421875 L 3.171875 -150.03125 L 3.171875 -250.046875 C 3.171875 -252.691406 4.492188 -254.015625 7.140625 -254.015625 L 118.671875 -254.015625 C 121.316406 -254.015625 122.640625 -252.691406 122.640625 -250.046875 L 122.640625 -163.125 L 125.421875 -159.546875 L 128.203125 -163.125 L 128.203125 -250.046875 C 128.203125 -252.691406 129.523438 -254.015625 132.171875 -254.015625 L 243.6875 -254.015625 C 246.332031 -254.015625 247.65625 -252.691406 247.65625 -250.046875 Z M 247.65625 -250.046875 "/></g></g></g><g fill="#1b1b1b" fill-opacity="1"><g transform="translate(720.750783, 269.90919)"><g><path d="M 3.171875 -55.5625 L 3.171875 -198.453125 C 3.171875 -216.441406 8 -230.195312 17.65625 -239.71875 C 27.3125 -249.25 41.003906 -254.015625 58.734375 -254.015625 L 192.09375 -254.015625 C 210.082031 -254.015625 223.835938 -249.25 233.359375 -239.71875 C 242.890625 -230.195312 247.65625 -216.441406 247.65625 -198.453125 L 247.65625 -55.5625 C 247.65625 -37.832031 242.890625 -24.140625 233.359375 -14.484375 C 223.835938 -4.828125 210.082031 0 192.09375 0 L 58.734375 0 C 41.003906 0 27.3125 -4.828125 17.65625 -14.484375 C 8 -24.140625 3.171875 -37.832031 3.171875 -55.5625 Z M 122.640625 -184.15625 L 122.640625 -69.859375 L 128.203125 -69.859375 L 128.203125 -184.15625 Z M 122.640625 -184.15625 "/></g></g></g></g></g></svg>
